# xmcd
#
# Track frame offsets:
#	150
#	18341
#	35619
#	53873
#	66221
#	83006
#	93028
#	105115
#	128722
#	144227
#
# Disc length: 2106 seconds
#
# Revision: 1
# Processed by: cddbd v1.5.2PL0 Copyright (c) Steve Scherf et al.
# Submitted via: audiograbber 1.83.01
#
DISCID=7008380a
DTITLE=Pat Payne - Horses Pat Payne
DYEAR=1900
DGENRE=
TTITLE0=Horses
TTITLE1=What We Live For
TTITLE2=My Song To You
TTITLE3=Don´t Bait Horses
TTITLE4=Dear Lord
TTITLE5=Same Old Moon
TTITLE6=Riddle And Rythme
TTITLE7=Gamblers Game
TTITLE8=Easy Way Out
TTITLE9=Just Us For Sale
EXTD=
EXTT0=
EXTT1=
EXTT2=
EXTT3=
EXTT4=
EXTT5=
EXTT6=
EXTT7=
EXTT8=
EXTT9=
PLAYORDER=
